<svg xmlns="http://www.w3.org/2000/svg" version="1.1" xmlns:xlink="http://www.w3.org/1999/xlink" xmlns:svgjs="http://svgjs.dev/svgjs" viewBox="0 0 800 800"><defs><linearGradient x1="50%" y1="0%" x2="50%" y2="100%" id="ffflurry-grad" gradientTransform="rotate(270)"><stop stop-color="hsl(123, 0%, 88%)" stop-opacity="1" offset="0%"></stop><stop stop-color="hsl(162, 100%, 58%)" stop-opacity="1" offset="45%"></stop><stop stop-color="hsl(270, 73%, 53%)" stop-opacity="1" offset="100%"></stop></linearGradient></defs><rect width="100%" height="100%" fill="hsl(123, 0%, 88%)"></rect><g fill="url(#ffflurry-grad)"><rect width="454" height="1" x="496" y="455.5" rx="0.5" transform="rotate(28, 723, 456)"></rect><rect width="383" height="1" x="181.5" y="159.5" rx="0.5" transform="rotate(28, 373, 160)"></rect><rect width="490" height="1" x="234" y="495.5" rx="0.5" transform="rotate(28, 479, 496)"></rect><rect width="220" height="1" x="365" y="755.5" rx="0.5" transform="rotate(28, 475, 756)"></rect><rect width="277" height="1" x="500.5" y="624.5" rx="0.5" transform="rotate(28, 639, 625)"></rect><rect width="301" height="1" x="594.5" y="572.5" rx="0.5" transform="rotate(28, 745, 573)"></rect><rect width="191" height="1" x="7.5" y="323.5" rx="0.5" transform="rotate(28, 103, 324)"></rect><rect width="448" height="1" x="370" y="426.5" rx="0.5" transform="rotate(28, 594, 427)"></rect><rect width="61" height="1" x="182.5" y="77.5" rx="0.5" transform="rotate(28, 213, 78)"></rect><rect width="385" height="1" x="107.5" y="484.5" rx="0.5" transform="rotate(28, 300, 485)"></rect><rect width="245" height="1" x="358.5" y="637.5" rx="0.5" transform="rotate(28, 481, 638)"></rect><rect width="181" height="1" x="348.5" y="94.5" rx="0.5" transform="rotate(28, 439, 95)"></rect><rect width="457" height="1" x="96.5" y="311.5" rx="0.5" transform="rotate(28, 325, 312)"></rect><rect width="274" height="1" x="541" y="755.5" rx="0.5" transform="rotate(28, 678, 756)"></rect><rect width="246" height="1" x="45" y="656.5" rx="0.5" transform="rotate(28, 168, 657)"></rect><rect width="559" height="1" x="-213.5" y="716.5" rx="0.5" transform="rotate(28, 66, 717)"></rect><rect width="193" height="1" x="213.5" y="43.5" rx="0.5" transform="rotate(28, 310, 44)"></rect><rect width="341" height="1" x="-7.5" y="194.5" rx="0.5" transform="rotate(28, 163, 195)"></rect><rect width="362" height="1" x="184" y="415.5" rx="0.5" transform="rotate(28, 365, 416)"></rect><rect width="256" height="1" x="-85" y="75.5" rx="0.5" transform="rotate(28, 43, 76)"></rect><rect width="415" height="1" x="40.5" y="751.5" rx="0.5" transform="rotate(28, 248, 752)"></rect><rect width="109" height="1" x="2.5" y="529.5" rx="0.5" transform="rotate(28, 57, 530)"></rect><rect width="421" height="1" x="384.5" y="535.5" rx="0.5" transform="rotate(28, 595, 536)"></rect><rect width="283" height="1" x="412.5" y="753.5" rx="0.5" transform="rotate(28, 554, 754)"></rect><rect width="81" height="1" x="243.5" y="156.5" rx="0.5" transform="rotate(28, 284, 157)"></rect><rect width="56" height="1" x="160" y="307.5" rx="0.5" transform="rotate(28, 188, 308)"></rect><rect width="145" height="1" x="123.5" y="413.5" rx="0.5" transform="rotate(28, 196, 414)"></rect><rect width="372" height="1" x="407" y="56.5" rx="0.5" transform="rotate(28, 593, 57)"></rect><rect width="281" height="1" x="294.5" y="360.5" rx="0.5" transform="rotate(28, 435, 361)"></rect><rect width="300" height="1" x="-99" y="221.5" rx="0.5" transform="rotate(28, 51, 222)"></rect><rect width="329" height="1" x="590.5" y="707.5" rx="0.5" transform="rotate(28, 755, 708)"></rect><rect width="75" height="1" x="453.5" y="173.5" rx="0.5" transform="rotate(28, 491, 174)"></rect><rect width="79" height="1" x="341.5" y="732.5" rx="0.5" transform="rotate(28, 381, 733)"></rect><rect width="216" height="1" x="188" y="630.5" rx="0.5" transform="rotate(28, 296, 631)"></rect><rect width="327" height="1" x="19.5" y="532.5" rx="0.5" transform="rotate(28, 183, 533)"></rect><rect width="254" height="1" x="409" y="271.5" rx="0.5" transform="rotate(28, 536, 272)"></rect><rect width="144" height="1" x="57" y="66.5" rx="0.5" transform="rotate(28, 129, 67)"></rect><rect width="373" height="1" x="418.5" y="191.5" rx="0.5" transform="rotate(28, 605, 192)"></rect><rect width="472" height="1" x="150" y="567.5" rx="0.5" transform="rotate(28, 386, 568)"></rect><rect width="563" height="1" x="447.5" y="113.5" rx="0.5" transform="rotate(28, 729, 114)"></rect><rect width="78" height="1" x="704" y="307.5" rx="0.5" transform="rotate(28, 743, 308)"></rect><rect width="168" height="1" x="549" y="318.5" rx="0.5" transform="rotate(28, 633, 319)"></rect><rect width="78" height="1" x="10" y="388.5" rx="0.5" transform="rotate(28, 49, 389)"></rect><rect width="156" height="1" x="341" y="259.5" rx="0.5" transform="rotate(28, 419, 260)"></rect><rect width="308" height="1" x="109" y="255.5" rx="0.5" transform="rotate(28, 263, 256)"></rect><rect width="185" height="1" x="421.5" y="364.5" rx="0.5" transform="rotate(28, 514, 365)"></rect><rect width="257" height="1" x="321.5" y="28.5" rx="0.5" transform="rotate(28, 450, 29)"></rect><rect width="168" height="1" x="510" y="696.5" rx="0.5" transform="rotate(28, 594, 697)"></rect></g></svg>