<svg xmlns="http://www.w3.org/2000/svg" version="1.1" xmlns:xlink="http://www.w3.org/1999/xlink" xmlns:svgjs="http://svgjs.dev/svgjs" viewBox="0 0 800 800" opacity="1"><defs><linearGradient x1="50%" y1="0%" x2="50%" y2="100%" id="uundulate-grad"><stop stop-color="hsl(206, 75%, 49%)" stop-opacity="1" offset="45%"></stop><stop stop-color="hsl(331, 90%, 56%)" stop-opacity="1" offset="100%"></stop></linearGradient></defs><g stroke-width="1" stroke="url(#uundulate-grad)" fill="none"><path d="M2629.2143800993663 -1303.913606047196C3516.1962198422525 -122.41120786717875 2850.147558110495 2508.755262029772 2184.9309096183233 3229.2122262444154C1519.7142611261506 3949.669190459058 323.1563070798252 3335.782220363102 -563.8255326630615 2154.2798221830844C-1450.8073724059477 972.7774240030667 -2737.7985696397122 -1721.542320805036 -2072.58192114754 -2441.999285019679C-1407.3652726553678 -3162.456249234322 1742.2325403564791 -2485.4160042272133 2629.2143800993663 -1303.913606047196C3516.1962198422525 -122.41120786717875 2850.147558110495 2508.755262029772 2184.9309096183233 3229.2122262444154 "></path><path d="M2600.263303816876 -1281.784981176022C3475.7258988877775 -115.62676998535562 2818.3272197759134 2481.36870679605 2161.749748536886 3192.4690870598533C1505.1722772978592 3903.5694673236576 324.1540369404461 3297.655055280896 -551.3085581304547 2131.4968440902285C-1426.7711532013554 965.3386328995621 -2697.0481790424737 -1693.9899463915524 -2040.4707078034467 -2405.090326655356C-1383.8932365644196 -3116.1907069191593 1724.8007087459755 -2447.9431923666884 2600.263303816876 -1281.784981176022C3475.7258988877775 -115.62676998535562 2818.3272197759134 2481.36870679605 2161.749748536886 3192.4690870598533 "></path><path d="M2571.312837885949 -1259.65632578727C3435.256188284864 -108.84230158595392 2786.5074917928932 2453.982182079907 2138.5691978070117 3155.7259783928703C1490.6309038211293 3857.4697747058344 325.1523771526299 3259.5279207162666 -538.7909732462854 2108.7138965149516C-1402.7343236452007 957.899872313636 -2656.2971780936728 -1666.4375414604906 -2008.3588841077908 -2368.1813377734547C-1360.4205901219088 -3069.925134086419 1707.3694874870334 -2410.4703499885854 2571.312837885949 -1259.65632578727C3435.256188284864 -108.84230158595392 2786.5074917928932 2453.982182079907 2138.5691978070117 3155.7259783928703 "></path><path d="M2542.3618836737714 -1237.527487293049C3394.7859894007015 -102.05765008108438 2754.687275528623 2426.595840469231 2115.388158795886 3118.983052831356C1476.0890420631495 3811.370265193481 326.1502290835633 3221.400969257107 -526.2738766433663 2085.9311320451425C-1378.6979823702961 950.4612948331778 -2615.5466654261218 -1638.8849534239603 -1976.2475486933847 -2331.2721657860848C-1336.9484319606477 -3023.6593781482093 1689.9377779468423 -2372.9973245050137 2542.3618836737714 -1237.527487293049C3394.7859894007015 -102.05765008108438 2754.687275528623 2426.595840469231 2115.388158795886 3118.983052831356 "></path><path d="M2513.4111736022187 -1215.3986793164063C3354.316034657164 -95.2730290937925 2722.867303404978 2399.2094683409787 2092.2073639253867 3082.2400967522644C1461.547424445795 3765.2707251635493 327.14832515512217 3183.2739872803695 -513.756535899822 2063.148337057756C-1354.6613969547664 943.0226868351415 -2574.7959086179458 -1611.3323959050076 -1944.1359691383539 -2294.3630243162925C-1313.476029658762 -2977.393652727578 1672.5063125472752 -2335.52432953902 2513.4111736022187 -1215.3986793164063C3354.316034657164 -95.2730290937925 2722.867303404978 2399.2094683409787 2092.2073639253867 3082.2400967522644 "></path><path d="M2484.4599752494178 -1193.2700849628102C3313.8455916323765 -88.48862172954705 2691.0468430000838 2371.8228825896795 2069.0260807736377 3045.496927050125C1447.0053185471902 3719.17097151057 328.145932945431 3145.146791680586 -501.2396834375277 2040.365328447322C-1330.6252998204866 935.5838652140592 -2534.0456400910193 -1583.7800520091023 -1912.0248778645728 -2257.454096469548C-1290.0041156381262 -2931.128140929993 1655.0743588664582 -2298.0515481960733 2484.4599752494178 -1193.2700849628102C3313.8455916323765 -88.48862172954705 2691.0468430000838 2371.8228825896795 2069.0260807736377 3045.496927050125 "></path><path d="M2455.5091431075525 -1171.1411243982768C3273.3755148185255 -81.703848154365 2659.226748806126 2344.436663049317 2045.8451638328243 3008.7541235589224C1432.4635788595233 3673.071584068529 329.1439069466769 3107.019962291738 -488.7224647642961 2017.5826860478255C-1306.5888364752693 928.1454098039139 -2493.295005353156 -1556.2273419022592 -1879.9134203798544 -2220.544802411865C-1266.5318354065528 -2884.862262921471 1637.6427713965795 -2260.578400642189 2455.5091431075525 -1171.1411243982768C3273.3755148185255 -81.703848154365 2659.226748806126 2344.436663049317 2045.8451638328243 3008.7541235589224 "></path><path d="M2426.558799246938 -1149.0125910798372C3232.9059262859255 -74.9195018252758 2627.4071428934185 2317.0500162628605 2022.6647351732627 2972.010892821627C1417.922327453106 3626.971769380393 330.14236922917326 3068.8927056567973 -476.2047578098143 1994.799616402236C-1282.5518848488018 920.7065271476745 -2452.5438823340423 -1528.67505904151 -1847.801474613886 -2183.6359356002763C-1243.0590668937293 -2838.596812159043 1620.21167220795 -2223.1056803343986 2426.558799246938 -1149.0125910798372C3232.9059262859255 -74.9195018252758 2627.4071428934185 2317.0500162628605 2022.6647351732627 2972.010892821627 "></path><path d="M2397.607722964448 -1126.88369155046C3192.4356053314505 -68.13478928524955 2595.586804558837 2289.6637356873416 1999.4835740918252 2935.268028295269C1403.3803436248136 3580.872320903196 331.1400990897946 3030.765815232793 -463.6877832772075 1972.0169129675833C-1258.5156656442095 913.268010702373 -2411.793491736804 -1501.1224099698234 -1815.6902612697925 -2146.72670257775C-1219.587030802781 -2792.3309951856772 1602.7798405974459 -2185.6325938156706 2397.607722964448 -1126.88369155046C3192.4356053314505 -68.13478928524955 2595.586804558837 2289.6637356873416 1999.4835740918252 2935.268028295269 "></path><path d="M2368.657012892896 -1104.7551277144423C3151.965650587912 -61.350412438583135 2563.7668324351926 2262.2771194184643 1976.3027792213252 2898.5248280755523C1388.8387260074592 3534.7725367326393 332.138195161353 2992.6385891154314 -451.1704425336634 1949.233873839572C-1234.4790802286798 905.8291585637121 -2371.042734928628 -1473.5700965914957 -1783.5786817147614 -2109.817805248583C-1196.1146285008954 -2746.0655139056707 1585.3483751978792 -2148.159842990302 2368.657012892896 -1104.7551277144423C3151.965650587912 -61.350412438583135 2563.7668324351926 2262.2771194184643 1976.3027792213252 2898.5248280755523 "></path><path d="M2339.705936610406 -1082.6262281850652C3111.495329633437 -54.565699898556886 2531.946494100609 2234.8908388429454 1953.1216181398886 2861.7819635491933C1374.2967421791668 3488.673088255441 333.13592502197434 2954.5116986914272 -438.6534680010566 1926.4511704049182C-1210.4428610240877 898.3906421184101 -2330.2923443313894 -1446.0174475198091 -1751.467468370668 -2072.908572226057C-1172.6425924099467 -2699.799696932305 1567.9165435873747 -2110.686756471574 2339.705936610406 -1082.6262281850652C3111.495329633437 -54.565699898556886 2531.946494100609 2234.8908388429454 1953.1216181398886 2861.7819635491933 "></path><path d="M2310.754982398229 -1060.4976033138912C3071.0251307492745 -47.78126201673331 2500.12627783634 2207.5042836092234 1929.9405791287636 2825.038824364632C1359.7548804211879 3442.5733651200408 334.13377695290774 2916.384533609221 -426.13637139813727 1903.6681923120632C-1186.406519749183 890.9518510149055 -2289.5418316638384 -1418.4650731063255 -1719.3561329562622 -2035.999613861734C-1149.170434248686 -2653.534154617142 1550.4848340471835 -2073.213944611049 2310.754982398229 -1060.4976033138912C3071.0251307492745 -47.78126201673331 2500.12627783634 2207.5042836092234 1929.9405791287636 2825.038824364632 "></path><path d="M2281.8043943969888 -1038.368734302092C3030.5552980760485 -40.996579994285185 2468.306427783008 2180.1179725161273 1906.759906328576 2788.295929320696C1345.2133848741455 3396.4738861252654 335.1319950947791 2878.2576126676395 -413.6189085842807 1880.8854583598331C-1162.3698122633407 883.5133040520263 -2248.79095278535 -1390.9124545522168 -1687.2444313309186 -1999.0904113567858C-1125.6979098764878 -2607.2683681613544 1533.053490717929 -2035.7408886098992 2281.8043943969888 -1038.368734302092C3030.5552980760485 -40.996579994285185 2468.306427783008 2180.1179725161273 1906.759906328576 2788.295929320696 "></path><path d="M2252.853684325437 -1016.2398958078713C2990.085343332511 -34.211928489415186 2436.486455659362 2152.731630905452 1883.5791114580766 2751.5530037591816C1330.6717672567906 3350.374376612911 336.13009116633793 2840.13066120848 -401.1015678407364 1858.102693890024C-1138.333226847811 876.0747265715681 -2208.0401959771734 -1363.3598665156865 -1655.1328517758877 -1962.1812393694158C-1102.2255075746016 -2561.0026122231448 1515.6220253183624 -1998.2678631263275 2252.853684325437 -1016.2398958078713C2990.085343332511 -34.211928489415186 2436.486455659362 2152.731630905452 1883.5791114580766 2751.5530037591816 "></path><path d="M2223.9028521835717 -994.1112404191192C2949.615266518661 -27.427460090013938 2404.6663614654053 2125.3451061893093 1860.398194517264 2714.8098950921994C1316.1300275691237 3304.2746839950887 337.1280651675838 2802.0035266438517 -388.5843491675048 1835.3197463147471C-1114.2967635025936 868.6359659856416 -2167.28956123931 -1335.8074615846244 -1623.0213942911691 -1925.2722504875144C-1078.7532273430284 -2514.7370393904043 1498.1904378484833 -1960.7950207482245 2223.9028521835717 -994.1112404191192C2949.615266518661 -27.427460090013938 2404.6663614654053 2125.3451061893093 1860.398194517264 2714.8098950921994 "></path><path d="M2194.9520200417073 -971.9824324424765C2909.145189704811 -20.642839102722064 2372.8462672714486 2097.958734061056 1837.2172775764525 2678.066939013106C1301.5882878814564 3258.175143965156 338.1260391688302 2763.876544667114 -376.0671304942732 1812.53695132736C-1090.2603001573764 861.1973579876053 -2126.5389265014464 -1308.2549040656722 -1590.9099368064508 -1888.3631090177225C-1055.2809471114551 -2468.471313969773 1480.7588503786042 -1923.3220257822309 2194.9520200417073 -971.9824324424765C2909.145189704811 -20.642839102722064 2372.8462672714486 2097.958734061056 1837.2172775764525 2678.066939013106 "></path><path d="M2166.001187899843 -949.8538075713025C2868.67511289096 -13.85840122089894 2341.026173077491 2070.572178827335 1814.03636063564 2641.323799828546C1287.046548193789 3212.0754208297567 339.1240131700765 2725.7493795849077 -363.5499118210414 1789.7539732345049C-1066.223836812159 853.7585668841007 -2085.788291763583 -1280.7025296521886 -1558.7984793217324 -1851.4541506533994C-1031.8086668798817 -2422.20577165461 1463.327262908725 -1885.8492139217058 2166.001187899843 -949.8538075713025C2868.67511289096 -13.85840122089894 2341.026173077491 2070.572178827335 1814.03636063564 2641.323799828546 "></path><path d="M2137.0499895470402 -927.7249080419253C2828.2046698661725 -7.073688680872692 2309.205712672596 2043.185898251816 1790.85507748389 2604.580935302187C1272.5044422951846 3165.9759723525576 340.12162096038537 2687.6224891609036 -351.0330593587471 1766.9712697998511C-1042.1877396778796 846.3200504387987 -2045.038023236657 -1253.1498805805018 -1526.6873880479513 -1814.544917630873C-1008.3367528592457 -2375.939954681244 1445.895309227908 -1848.3761274029778 2137.0499895470402 -927.7249080419253C2828.2046698661725 -7.073688680872692 2309.205712672596 2043.185898251816 1790.85507748389 2604.580935302187 "></path><path d="M2108.0994015458 -905.5963136883295C2787.7348371929475 -0.289281316627239 2277.385862619263 2015.799312500516 1767.674404683703 2567.8377656000475C1257.9629467481423 3119.87621869958 341.11983910225626 2649.49529356112 -338.5155965448905 1744.188261189418C-1018.1510321920372 838.881228817716 -2004.2871443581685 -1225.5975366845964 -1494.5756864226078 -1777.635989784128C-984.8642284870474 -2329.67444288366 1428.463965898654 -1810.903346060031 2108.0994015458 -905.5963136883295C2787.7348371929475 -0.289281316627239 2277.385862619263 2015.799312500516 1767.674404683703 2567.8377656000475 "></path><path d="M2079.148447333623 -883.4674751941084C2747.264638308784 6.495370188242305 2245.565646354993 1988.4129708898417 1744.4933656725784 2531.094840038534C1243.4210849901629 3073.7767091872256 342.1176910331901 2611.3683421019605 -325.9984999419712 1721.4054967196098C-994.1146909171324 831.4426513372587 -1963.5366316906172 -1198.0449486480659 -1462.464351008202 -1740.726817796758C-961.3920703257866 -2283.4086869454504 1411.0322563584623 -1773.4303205764593 2079.148447333623 -883.4674751941084C2747.264638308784 6.495370188242305 2245.565646354993 1988.4129708898417 1744.4933656725784 2531.094840038534 "></path><path d="M2050.1974931214463 -861.3388808405127C2706.7944394246215 13.279777552487303 2213.745430090724 1961.0263851385416 1721.3123266614534 2494.351670336394C1228.879223232183 3027.676955534247 343.11554296412396 2573.241146502176 -313.4814033390519 1698.6224881091753C-970.0783496422276 824.0038297161755 -1922.7861190230662 -1170.4926047521603 -1430.353015593796 -1703.817889950013C-937.9199121645256 -2237.143175147866 1393.6005468182707 -1735.9575392335125 2050.1974931214463 -861.3388808405127C2706.7944394246215 13.279777552487303 2213.745430090724 1961.0263851385416 1721.3123266614534 2494.351670336394 "></path><path d="M2021.247027190519 -839.2100118287135C2666.324728821709 20.064459574935427 2181.9257021077037 1933.6400740454446 1698.1317759315789 2457.6087752924586C1214.3378497554536 2981.5774765394717 344.11388317630735 2535.1142255605937 -300.9638184548828 1675.8397541569452C-946.0415200860729 816.5652827532958 -1882.0351180742653 -1142.9399861980517 -1398.24119189814 -1666.908687445065C-914.4472657220148 -2190.877388692078 1376.1693255593286 -1698.4844832323627 2021.247027190519 -839.2100118287135C2666.324728821709 20.064459574935427 2181.9257021077037 1933.6400740454446 1698.1317759315789 2457.6087752924586 "></path><path d="M1992.2959509080292 -817.0813869575397C2625.854407867233 26.84889745675855 2150.1053637731216 1906.2535188117236 1674.9506148501414 2420.8656361078965C1199.7958659271617 2935.4777534040704 345.11161303692825 2496.9870604783873 -288.446843922276 1653.0567760640888C-922.0053008814806 809.1264916497912 -1841.2847274770265 -1115.387611784568 -1366.1299785540464 -1629.9997290807419C-890.9752296310664 -2144.6118463769153 1358.7374939488245 -1661.0116713718378 1992.2959509080292 -817.0813869575397C2625.854407867233 26.84889745675855 2150.1053637731216 1906.2535188117236 1674.9506148501414 2420.8656361078965 "></path><path d="M1963.3451187661644 -794.9525179457405C2585.384331053383 33.633579479206674 2118.2852695791644 1878.8672077186266 1651.769697909329 2384.1227410639603C1185.2541262394943 2889.378274409295 346.10958703817505 2458.860139536806 -275.9296252490442 1630.2740421118588C-897.9688375362633 801.6879446869116 -1800.534092739163 -1087.8349932304595 -1334.018521069328 -1593.0905265757935C-867.5029493994931 -2098.3460599211276 1341.3059064789454 -1623.5386153706877 1963.3451187661644 -794.9525179457405C2585.384331053383 33.633579479206674 2118.2852695791644 1878.8672077186266 1651.769697909329 2384.1227410639603 "></path><path d="M1934.3942866243 -772.8239235921446C2544.914254239533 40.41798684345213 2086.465175385207 1851.4806219673274 1628.5887809685173 2347.379571361822C1170.7123865518274 2843.2785207563165 347.10756103942094 2420.7329439370224 -263.4124065758126 1607.4910335014251C-873.9323741910462 794.2491230658288 -1759.7834580012996 -1060.282649334554 -1301.9070635846097 -1556.1815987290486C-844.0306691679197 -2052.0805481235434 1323.8743190090663 -1586.065834027741 1934.3942866243 -772.8239235921446C2544.914254239533 40.41798684345213 2086.465175385207 1851.4806219673274 1628.5887809685173 2347.379571361822 "></path><path d="M1905.4434544824353 -750.6950240627675C2504.444177425683 47.20269938347792 2054.6450811912496 1824.094341391808 1605.4078640277048 2310.636706835463C1156.17064686416 2797.1790722791184 348.10553504066684 2382.606053513018 -250.8951879025808 1584.7083300667723C-849.8959108458289 786.8106066205269 -1719.032823263436 -1032.7300002628672 -1269.795606099891 -1519.2723657065224C-820.5583889363463 -2005.8147311501775 1306.4427315391872 -1548.592747509013 1905.4434544824353 -750.6950240627675C2504.444177425683 47.20269938347792 2054.6450811912496 1824.094341391808 1605.4078640277048 2310.636706835463 "></path><path d="M1876.4927444108826 -728.5664602267498C2463.9742226821454 53.98707623014525 2022.825109067605 1796.7077251229307 1582.2270691572048 2273.8935066157464C1141.6290292468052 2751.0792881085617 349.10363111222614 2344.4788273956565 -238.3778471590365 1561.925290938761C-825.8593254302991 779.3717544818664 -1678.28206645526 -1005.1776868845398 -1237.6840265448602 -1482.3634683773553C-797.0859866344605 -1959.549249870171 1289.0112661396201 -1511.1199966836443 1876.4927444108826 -728.5664602267498C2463.9742226821454 53.98707623014525 2022.825109067605 1796.7077251229307 1582.2270691572048 2273.8935066157464 "></path><path d="M1847.5417901987053 -706.4375301797945C2423.504023797983 60.77181928774917 1991.0048928033352 1769.3214750649895 1559.0460301460803 2237.1506726069656C1127.0871674888258 2704.9798701489417 350.10148304315953 2306.3519674892304 -225.8607505561174 1539.1426180216863C-801.8229841553942 771.9332685541422 -1637.5315537877088 -977.6250072952749 -1205.5726911304541 -1445.454204837251C-773.6138284731995 -1913.283402379227 1271.5795565994285 -1473.6468796473382 1847.5417901987053 -706.4375301797945C2423.504023797983 60.77181928774917 1991.0048928033352 1769.3214750649895 1559.0460301460803 2237.1506726069656 "></path><path d="M1818.590713916216 -684.3088442734643C2383.033702843507 67.55631820472877 1959.1845544687526 1741.9349808664247 1535.8648690646432 2200.4075944575607C1112.5451836605334 2658.8802080486976 351.09921290378065 2268.2248634421803 -213.3437760235106 1516.359700963987C-777.786764950802 764.4945384857938 -1596.7811631904704 -950.0725718466351 -1173.4614777863608 -1408.5451854377716C-750.1417923822512 -1867.0177990289083 1254.1477249889244 -1436.174006751657 1818.590713916216 -684.3088442734643C2383.033702843507 67.55631820472877 1959.1845544687526 1741.9349808664247 1535.8648690646432 2200.4075944575607 "></path><path d="M1789.6401259149761 -662.1799752616653C2342.563870170282 74.34100022717689 1927.3647044154204 1714.5486697733277 1512.6841962644557 2163.664699413625C1098.003688113491 2612.780729053922 352.097431045652 2230.097942500599 -200.8263132096538 1493.5769670117566C-753.7500574649598 757.0559915229146 -1556.0302843119816 -922.5199532925265 -1141.3497761610174 -1371.6359829328235C-726.6692680100529 -1820.7520125731205 1236.7163816596703 -1398.7009507505072 1789.6401259149761 -662.1799752616653C2342.563870170282 74.34100022717689 1927.3647044154204 1714.5486697733277 1512.6841962644557 2163.664699413625 "></path><path d="M1760.6891717027988 -640.0510757322882C2302.093671286119 81.12571276720314 1895.5444881511507 1687.1623891978093 1489.5031572533312 2126.921834887267C1083.4618263555117 2566.681280576724 353.0952829765856 2191.9710520765952 -188.3092166067347 1470.7942635771037C-729.713716190055 749.6174750776127 -1515.2797716444306 -894.9673042208398 -1109.2384407466113 -1334.7267499102973C-703.197109848792 -1774.4861955997546 1219.2846721194787 -1361.2278642317792 1760.6891717027988 -640.0510757322882C2302.093671286119 81.12571276720314 1895.5444881511507 1687.1623891978093 1489.5031572533312 2126.921834887267 "></path><path d="M1731.7385226664028 -617.9225424138483C2261.6237775777377 87.91005909629189 1863.7245770626619 1659.775742411353 1466.3224234179875 2090.178604149971C1068.9202697733135 2520.5814658885893 354.0934400833005 2153.8437954416545 -175.79181482803415 1448.0111939315138C-705.677069739369 742.1785924213737 -1474.5289538010984 -867.4150213600905 -1077.126800156424 -1297.8178830987085C-679.7246465117498 -1728.2207448373265 1201.853267755068 -1323.7551439239887 1731.7385226664028 -617.9225424138483C2261.6237775777377 87.91005909629189 1863.7245770626619 1659.775742411353 1466.3224234179875 2090.178604149971 "></path><path d="M1702.7876294893817 -595.7937344372058C2221.153639728731 94.69468008358376 1831.904421833548 1632.3893702831 1443.1414454420196 2053.435648070879C1054.3784690504904 2474.4819258586576 355.0913530493906 2115.7168134649164 -163.27465718995882 1425.228398944127C-681.640667429308 734.7399844233378 -1433.7783800983912 -839.862463841138 -1045.015403706862 -1260.9087416289167C-656.2524273153327 -1681.955019416695 1184.421619250033 -1286.282148957995 1702.7876294893817 -595.7937344372058C2221.153639728731 94.69468008358376 1831.904421833548 1632.3893702831 1443.1414454420196 2053.435648070879 "></path><path d="M1673.8367973475174 -573.6650485308755C2180.6835629148804 101.47917900056314 1800.0843276395913 1605.0028760845344 1419.9605285012071 2016.6925699214735C1039.836729362823 2428.3822637584126 356.0893270506367 2077.5897094178663 -150.757438516727 1402.4454818864274C-657.6042040840907 727.3012543549889 -1393.0277453605277 -812.3100283924982 -1012.9039462221435 -1223.999722229437C-632.7801470837594 -1635.689416066376 1166.9900317801535 -1248.809276062314 1673.8367973475174 -573.6650485308755C2180.6835629148804 101.47917900056314 1800.0843276395913 1605.0028760845344 1419.9605285012071 2016.6925699214735 "></path><path d="M1644.8860262408089 -551.5363015893888C2140.213547136187 108.26373895269876 1768.2642944807899 1577.6164429211258 1396.779672595551 1979.9495528072252C1025.295050710312 2382.282662693325 357.0873620870391 2039.4626664059724 -138.24015880833895 1379.6626258638848C-633.5676797037172 719.8625853217968 -1352.2770495875077 -784.757531908702 -980.7924277022687 -1187.0906417948015C-609.3078058170297 -1589.423751680901 1149.5585053454301 -1211.3363421314766 1644.8860262408089 -551.5363015893888C2140.213547136187 108.26373895269876 1768.2642944807899 1577.6164429211258 1396.779672595551 1979.9495528072252 "></path><path d="M1615.9350109934753 -529.4074630951679C2099.743287216868 115.04839045756898 1736.444017181364 1550.2301013104511 1373.59857254927 1943.206627245711C1010.7531279171762 2336.183153180971 358.0851529828167 2001.335714946813 -125.72312324057611 1356.8798613940758C-609.5313994639687 712.4240078413395 -1311.526597955113 -757.2049438721716 -948.6811533230191 -1150.1814698074315C-585.8357086909251 -1543.1579957426914 1132.1267347700827 -1173.8633166479049 1615.9350109934753 -529.4074630951679C2099.743287216868 115.04839045756898 1736.444017181364 1550.2301013104511 1373.59857254927 1943.206627245711 "></path><path d="M1586.9843009219226 -507.27883822399394C2059.2733324733304 121.83282833939188 1704.6240450577193 1522.8435460767291 1350.41777767877 1906.4634880611497C996.2115102998214 2290.0834300455704 359.0832490543753 1963.2085498646065 -113.20578249703203 1334.0968833012203C-585.4948140484389 704.9852167378344 -1270.775841146937 -729.6525694586879 -916.5695737679881 -1113.2725114431082C-562.3633063890393 -1496.8924534275288 1114.6952693705157 -1136.39050478738 1586.9843009219226 -507.27883822399394C2059.2733324733304 121.83282833939188 1704.6240450577193 1522.8435460767291 1350.41777767877 1906.4634880611497 "></path><path d="M1558.0334687800582 -485.1499386946168C2018.8032556594799 128.61754087941813 1672.8039508637617 1495.4572655012107 1327.236860737958 1869.7206235347912C981.669770612154 2243.9839815683727 360.0812230556214 1925.0816594406028 -100.68856382380022 1311.3141798665679C-561.4583507032216 697.5467002925329 -1230.0252064090732 -702.0999203870011 -884.4581162832696 -1076.363278420582C-538.8910261574658 -1450.626636454163 1097.263681900637 -1098.917418268652 1558.0334687800582 -485.1499386946168C2018.8032556594799 128.61754087941813 1672.8039508637617 1495.4572655012107 1327.236860737958 1869.7206235347912 "></path><path d="M1529.0825756030372 -463.0213138234428C1978.3331178104731 135.40197876124148 1640.9837956346482 1468.0707102674887 1304.0558827619898 1832.9774843502305C967.1279698893309 2197.884258432972 361.0791360217115 1886.9544943583965 -88.17140618572466 1288.5312017737124C-537.4219483931606 690.1079091890279 -1189.274632706366 -674.5475459735177 -852.3467198337074 -1039.454320056259C-515.4188069610489 -1404.3610941390002 1079.8320333956012 -1061.4446064081271 1529.0825756030372 -463.0213138234428C1978.3331178104731 135.40197876124148 1640.9837956346482 1468.0707102674887 1304.0558827619898 1832.9774843502305 "></path><path d="M1500.1318044963286 -440.8925058468001C1937.8631020317794 142.18659974853313 1609.1637624758473 1440.684338139236 1280.8750268563335 1796.2345282711376C952.5862912368202 2151.7847184030397 362.07717105811366 1848.8275123816588 -75.65412647733683 1265.7484067863252C-513.3854240127871 682.669301190992 -1148.5239369333462 -646.9949884545653 -820.2352013138327 -1002.545178586467C-491.94646569431916 -1358.0953687183687 1062.4005069608784 -1023.9716114421333 1500.1318044963286 -440.8925058468001C1937.8631020317794 142.18659974853313 1609.1637624758473 1440.684338139236 1280.8750268563335 1796.2345282711376 "></path><path d="M1471.1809113193076 -418.7637589053136C1897.3929641827726 148.97115970066875 1577.3436072467334 1413.2979049758264 1257.6940488803648 1759.491511156889C938.0444905139966 2105.6851173379514 363.07508402420353 1810.7004693697645 -63.13696883926127 1242.9655507637822C-489.3490217027262 675.2306321577998 -1107.773363230639 -619.4424919707692 -788.1238048642705 -965.6360981518314C-468.47424649790196 -1311.8297043328937 1044.968858455843 -986.4986775112959 1471.1809113193076 -418.7637589053136C1897.3929641827726 148.97115970066875 1577.3436072467334 1413.2979049758264 1257.6940488803648 1759.491511156889 "></path><path d="M1442.2301402125995 -396.63501196382686C1856.9229484040789 155.7557196528046 1545.5235740879325 1385.9114718124179 1234.5131929747095 1722.7484940426407C923.5028118614855 2059.585516272863 364.07311906060613 1772.573426357871 -50.61968913087321 1220.1826947412392C-465.31249732235267 667.7919631246077 -1067.022667457619 -591.889995486973 -756.0122863443958 -928.7270177171957C-445.0019052311725 -1265.5640399474185 1027.5373320211197 -949.0257435804585 1442.2301402125995 -396.63501196382686C1856.9229484040789 155.7557196528046 1545.5235740879325 1385.9114718124179 1234.5131929747095 1722.7484940426407 "></path><path d="M1413.2792470355785 -374.5062955399186C1816.4528105550721 162.5402490873621 1513.7034188588186 1358.5250081314302 1211.3322149987407 1686.0054464108134C908.9610111386623 2013.4858846901966 365.071032026696 1734.4463528283986 -38.10253149279788 1197.399808201118C-441.27609501229153 660.3532635738372 -1026.2720937549118 -564.337529520755 -723.9008898948337 -891.8179678001381C-421.5296860347553 -1219.2984060795216 1010.1056835160844 -911.5528401671993 1413.2792470355785 -374.5062955399186C1816.4528105550721 162.5402490873621 1513.7034188588186 1358.5250081314302 1211.3322149987407 1686.0054464108134 "></path><path d="M1384.3283538585574 -352.3775791160102C1775.9826727060654 169.32477852191937 1481.8832636297057 1331.138544450443 1188.151237022772 1649.262398778987C894.419210415839 1967.3862531075306 366.0689449927859 1696.3192792989266 -25.58537385472232 1174.616921660997C-417.2396927022305 652.914564023067 -985.5215200522046 -536.7850635545369 -691.7894934452713 -854.9089178830807C-398.0574668383383 -1173.0327722116244 992.674035011049 -874.07993675394 1384.3283538585574 -352.3775791160102C1775.9826727060654 169.32477852191937 1481.8832636297057 1331.138544450443 1188.151237022772 1649.262398778987 "></path><path d="M1355.3775827518489 -330.2488016569456C1735.5126569273716 176.10936899163335 1450.0632304709043 1303.7521418046117 1164.9703811171162 1612.519412182316C879.8775317633283 1921.2866825600204 367.06698002918824 1658.1922668046104 -13.06809414633426 1151.8340961560316C-393.2031683218571 645.4759255074528 -944.7708242791848 -509.23253655316273 -659.6779749253967 -817.999806930867C-374.5851255716086 -1126.767077308571 975.2425085763261 -836.6069723055246 1355.3775827518489 -330.2488016569456C1735.5126569273716 176.10936899163335 1450.0632304709043 1303.7521418046117 1164.9703811171162 1612.519412182316 "></path><path d="M1326.4268116451403 -308.1200547154591C1695.0426411486774 182.89392894376897 1418.243197312103 1276.3657086412027 1141.7895252114604 1575.7763950680674C865.3358531108172 1875.187081494932 368.06501506559084 1620.0652237927166 -0.5508144379464284 1129.0512401334886C-369.1666439414836 638.0372564742606 -904.020128506165 -481.68004006936667 -627.566456405522 -781.0907264962314C-351.1127843048789 -1080.5014129230958 957.8109821416031 -799.1340383746872 1326.4268116451403 -308.1200547154591C1695.0426411486774 182.89392894376897 1418.243197312103 1276.3657086412027 1141.7895252114604 1575.7763950680674 "></path><path d="M1297.4759184681193 -285.99121622123823C1654.572503299671 189.67858044863897 1386.42304208299 1248.979367030528 1118.6085472354916 1539.033469506553C850.7940523879938 1829.087571982578 369.0629280316807 1581.938272333557 11.966343200128904 1106.26847566368C-345.13024163142256 630.5986789938027 -863.2695548034576 -454.1274520328361 -595.4550599559598 -744.1815545088613C-327.64056510846194 -1034.2356569848864 940.3793336365677 -761.6610128911154 1297.4759184681193 -285.99121622123823C1654.572503299671 189.67858044863897 1386.42304208299 1248.979367030528 1118.6085472354916 1539.033469506553 "></path><path d="M1268.5249032207857 -263.86259135006424C1614.1022433803519 196.4630183304621 1354.6027647835635 1221.5928117968065 1095.4274471892104 1502.2903303219919C836.2521295948579 1782.9878488471772 370.0607189274583 1543.8111072513502 24.483378767892077 1083.485497570824C-321.09396139167416 623.1598878902978 -822.5191031710629 -426.57507761935244 -563.34378557671 -707.272596144538C-304.16846798235724 -987.9701146697237 922.9475630612196 -724.1882010305904 1268.5249032207857 -263.86259135006424C1614.1022433803519 196.4630183304621 1354.6027647835635 1221.5928117968065 1095.4274471892104 1502.2903303219919 "></path><path d="M1239.5741931492335 -241.73372233826512C1573.6322886368139 203.24770035291021 1322.7827926599184 1194.20650070371 1072.246652318711 1465.5474352780561C821.7105119775033 1736.8883698524019 371.05881499901693 1505.6841863097693 37.00071951143627 1060.702763618594C-297.0573759761444 615.7213409274184 -781.7683463628867 -399.0224590652439 -531.2322060216791 -670.36339363959C-280.6960656804714 -941.7043282139362 905.516097661653 -686.7151450294406 1239.5741931492335 -241.73372233826512C1573.6322886368139 203.24770035291021 1322.7827926599184 1194.20650070371 1072.246652318711 1465.5474352780561 "></path><path d="M1210.623422042525 -219.60500591435675C1533.16227285812 210.0322297874677 1290.9627595011175 1166.8200370227223 1049.065796413055 1428.8043876462293C807.1688333249924 1690.7887382697359 372.0568500354193 1467.5571127802968 49.51799921982422 1037.9198770784724C-273.02085159577086 608.2826413766479 -741.017650589867 -371.4699930990258 -499.12068750180435 -633.4543437225325C-257.2237244137418 -895.438694346039 888.0845712269299 -649.2422416161813 1210.623422042525 -219.60500591435675C1533.16227285812 210.0322297874677 1290.9627595011175 1166.8200370227223 1049.065796413055 1428.8043876462293 "></path><path d="M1181.6725899006606 -197.47613690255776C1492.6921960442696 216.81691180991584 1259.1426653071603 1139.4337259296258 1025.8848794722426 1392.0614926022927C792.6270936373253 1644.68925927496 373.05482403666565 1429.4301918387155 62.03521789305603 1015.1371431262419C-248.9843882505536 600.8440944137683 -700.2670158520034 -343.91737454491727 -467.0092300170859 -596.5451412175843C-233.75144418216837 -849.1729078902514 870.6529837570508 -611.7691856150313 1181.6725899006606 -197.47613690255776C1492.6921960442696 216.81691180991584 1259.1426653071603 1139.4337259296258 1025.8848794722426 1392.0614926022927 "></path><path d="M1152.7217577587958 -175.34738996107126C1452.2221192304196 223.60147176205146 1227.3225711132027 1112.0472927662167 1002.7039625314305 1355.318475488044C778.0853539496582 1598.5896582098717 374.05279803791154 1391.3031488268216 74.55243656628772 992.3542871036987C-224.94792490533632 593.4054253805759 -659.5163811141399 -316.3648780611211 -434.89777253236747 -559.6360607829487C-210.27916395059503 -802.9072435047763 853.2213962871717 -574.296251684194 1152.7217577587958 -175.34738996107126C1452.2221192304196 223.60147176205146 1227.3225711132027 1112.0472927662167 1002.7039625314305 1355.318475488044 "></path><path d="M1123.770986652087 -153.21867353716289C1411.7521034517258 230.38600119660896 1195.502537954402 1084.6608290852291 979.5231066257745 1318.5754278562172C763.5436752971473 1552.4900266272052 375.05083307431414 1353.1760752973496 87.06971627467567 969.5714005635775C-200.9114005249628 585.9667258298055 -618.76568534112 -288.81241209490304 -402.78625401249275 -522.7270108658911C-186.80682268386545 -756.6416096368791 835.7898698524486 -536.8233482709347 1123.770986652087 -153.21867353716289C1411.7521034517258 230.38600119660896 1195.502537954402 1084.6608290852291 979.5231066257745 1318.5754278562172 "></path><path d="M1094.8199714047537 -131.0899265956764C1371.2818435324066 237.17056114874458 1163.6822606549758 1057.27439592182 956.3420065794935 1281.8324107419685C749.0017525040112 1506.3904255621173 376.04862397009174 1315.0490322854557 99.58675184243873 946.7885445410345C-176.87512028521428 578.5280567966136 -578.0152337087252 -261.259915611107 -370.674979633243 -485.8179304312555C-163.33472555776075 -710.375945251404 818.3580992771008 -499.35041434009736 1094.8199714047537 -131.0899265956764C1371.2818435324066 237.17056114874458 1163.6822606549758 1057.27439592182 956.3420065794935 1281.8324107419685 "></path><path d="M1065.8692918507795 -108.9612101717679C1330.8119193064467 243.95509058330208 1131.862319048909 1029.8879322408327 933.1612422265719 1245.0893631101417C734.4601654042349 1460.2907939794509 377.04675055922826 1276.9219587559837 112.10412310356105 924.0056580009132C-152.83850435210638 571.0893572458431 -537.2644463829711 -233.70744964488904 -338.56336956063393 -448.90888051419796C-139.8622927382968 -664.110311383507 800.9266643951121 -461.8775109268381 1065.8692918507795 -108.9612101717679C1330.8119193064467 243.95509058330208 1131.862319048909 1029.8879322408327 933.1612422265719 1245.0893631101417 "></path><path d="M1036.9183986737587 -86.8324327127034C1290.3417814574402 250.73968105301583 1100.0421638197956 1002.5015295950016 909.9802642506036 1208.3463765134711C719.9183646814115 1414.1912234319407 378.04466352531836 1238.7949462616675 124.6212807416365 901.2228324959481C-128.80210204204536 563.6507187302288 -496.51387268026383 -206.15492264351474 -306.45197311107177 -411.9997695619842C-116.3900735418797 -617.8446164804536 783.4950158900767 -424.4045464784226 1036.9183986737587 -86.8324327127034C1290.3417814574402 250.73968105301583 1100.0421638197956 1002.5015295950016 909.9802642506036 1208.3463765134711 "></path><path d="M1007.9675665318939 -64.70374680637303C1249.8717046435902 257.52417996999543 1068.2220696258382 975.1150353964365 886.7993473097913 1171.6032983640664C705.3766249937444 1368.0915613316965 379.0426375265647 1200.6678422146174 137.1384994148682 878.4399154382488C-104.76563869682809 556.2119886618807 -455.7632379424002 -178.6024871948748 -274.3405156263533 -375.09075016250483C-92.91779331030625 -571.5790131301347 766.0634284201976 -386.93167358274144 1007.9675665318939 -64.70374680637303C1249.8717046435902 257.52417996999543 1068.2220696258382 975.1150353964365 886.7993473097913 1171.6032983640664 "></path><path d="M979.016703872451 -42.57496934730841C1209.4015973121618 264.30877043970895 1036.4019449143027 947.7286327506054 863.6183998514009 1134.8603117673956C690.8348547884989 1321.9919907841863 380.0405810102326 1162.5408297203014 149.65568757052176 855.6570899332839C-80.72920586918895 548.7733501462665 -415.0126337221148 -151.0499601935005 -242.22908865921295 -338.181639210291C-69.44554359631104 -525.3133182270815 748.6318104327404 -349.45870913432594 979.016703872451 -42.57496934730841C1209.4015973121618 264.30877043970895 1036.4019449143027 947.7286327506054 863.6183998514009 1134.8603117673956 "></path><path d="M950.06581069543 -20.44625292340004C1168.9314594631553 271.09329987426656 1004.5817896851893 920.342169069618 840.4374218754324 1098.1172641355688C676.2930540656757 1275.8923592015199 381.03849397632246 1124.4137561908294 162.1728452085972 832.8742033931626C-56.692803559127924 541.334650595496 -374.2620600194075 -123.49749422728269 -210.11769220965073 -301.2725892932335C-45.973324399893954 -479.0476843591844 731.2001619277048 -311.9858057210667 950.06581069543 -20.44625292340004C1168.9314594631553 271.09329987426656 1004.5817896851893 920.342169069618 840.4374218754324 1098.1172641355688 "></path><path d="M921.1150701062998 1.6824940180865724C1128.4614742020394 277.8778598264023 972.7617870439663 892.9557359062089 817.2565964873547 1061.3742470213203C661.7514059307427 1229.7927581364315 382.03655953030307 1086.2867131789355 174.6901554345634 810.0913473706196C-32.65624866117628 533.8959815623039 -333.5113337288096 -95.94499774348651 -178.00614317219788 -264.36350885859787C-22.500952615586243 -432.7820199737092 713.7686660105599 -274.51287179022927 921.1150701062998 1.6824940180865724C1128.4614742020394 277.8778598264023 972.7617870439663 892.9557359062089 817.2565964873547 1061.3742470213203 "></path><path d="M892.164237964435 23.81124095957307C1087.991397388189 284.6624197785378 940.9416928500091 865.5693027427997 794.0756795465422 1024.6312299070717C647.2096662430758 1183.6931570713434 383.0345335315492 1048.1596701670414 187.2073741077951 787.3084913480766C-8.619785315959007 526.4573125291117 -292.760698990946 -68.39250125969033 -145.8946856874794 -227.4544284239622C0.9713276159870929 -386.5163555882341 696.3370785406807 -237.0399378593919 892.164237964435 23.81124095957307C1087.991397388189 284.6624197785378 940.9416928500091 865.5693027427997 794.0756795465422 1024.6312299070717 "></path><path d="M863.2134668577264 45.94004893621582C1047.521381609495 291.4470407658298 909.1216596912077 838.1829306145466 770.8948236408864 987.888273827979C632.6679875905647 1137.5936170414113 384.03256856795167 1010.0326881903036 199.72465381618304 764.5256963606896C15.416739064414514 519.0187045310756 -252.01000321792623 -40.83994374073802 -113.78316716760474 -190.54528695417036C24.443668882716793 -340.25063016760265 678.9055521059577 -199.56694289339828 863.2134668577264 45.94004893621582C1047.521381609495 291.4470407658298 909.1216596912077 838.1829306145466 770.8948236408864 987.888273827979 "></path><path d="M834.2625126455491 68.06876536012419C1007.0511827253322 298.2315702003873 877.301443426938 810.7964669335595 747.7137846297614 951.1452261961522C618.1261258325853 1091.4939854587449 385.0304204988854 971.9056146608314 212.24175041910235 741.7428098205683C39.45308033931917 511.58000498030515 -211.25949055037518 -13.28747777451997 -81.67183175319877 -153.63623703711283C47.91582704397763 -293.9849962997056 661.4738425657661 -162.09403948013897 834.2625126455491 68.06876536012419C1007.0511827253322 298.2315702003873 877.301443426938 810.7964669335595 747.7137846297614 951.1452261961522 "></path><path d="M805.3116194685281 90.19742074887631C966.5810448763257 305.01603859978854 845.4812881978244 783.4099422174158 724.5328066537932 914.4021175291693C603.5843251097617 1045.3942928409226 386.0283334649753 933.7784800962031 224.75890805717768 718.9598622452909C63.48948264938019 504.14124439437865 -170.50891684766788 14.264927156541717 -49.56043530363655 -116.72724815521156C71.38804624039471 -247.71942346696483 644.0421940607307 -124.62119710203598 805.3116194685281 90.19742074887631C966.5810448763257 305.01603859978854 845.4812881978244 783.4099422174158 724.5328066537932 914.4021175291693 "></path><path d="M776.3608483618198 112.32628976067531C926.1110290976317 311.80072062223667 813.6612550390232 756.0236311243193 701.3519507481371 877.6592224852329C589.042646457251 999.2948138461468 387.02636850137765 895.6515591546217 237.27618776556574 696.1771282930604C87.52600702975371 496.7026974314989 -129.75822107464808 41.81754571065039 -17.44891678376183 -79.8180456502634C94.86038750712436 -201.4536370111772 626.6106676260079 -87.14814110088605 776.3608483618198 112.32628976067531C926.1110290976317 311.80072062223667 813.6612550390232 756.0236311243193 701.3519507481371 877.6592224852329 "></path><path d="M747.4099857023768 134.45500618458368C885.6409217662033 318.58525005679417 781.8411303274879 728.6371674433319 678.1710032897467 840.9161748534061C574.5008762520056 953.1951822634805 388.02431198504587 857.5244856251497 249.79337592121942 673.3942417529393C111.56243985739286 489.26399788072865 -89.0076168543626 69.37001167686844 14.662510183378458 -42.90899573320587C118.33263722111963 -155.18800314328013 609.1790496385504 -49.675237687626804 747.4099857023768 134.45500618458368C885.6409217662033 318.58525005679417 781.8411303274879 728.6371674433319 678.1710032897467 840.9161748534061 "></path><path d="M718.4591535605123 156.58375312607018C845.170844952353 325.3698100089298 750.0210361335307 701.2507342799227 654.9900863489346 804.1731577391574C559.9591365643386 907.0955811983922 389.022285986292 819.3974426132556 262.310594594451 650.6113857303958C135.59890320261013 481.8253288475363 -48.2569821164991 96.9225081606645 46.77396766809693 -5.999915298570215C141.80491745269296 -108.92233875780494 591.7474621686712 -12.202303756789433 718.4591535605123 156.58375312607018C845.170844952353 325.3698100089298 750.0210361335307 701.2507342799227 654.9900863489346 804.1731577391574 "></path><path d="M689.5084129713817 178.71250006755668C804.7008596912372 332.1543699610654 718.2010334923076 673.8643011165136 631.8092609608567 767.4301406249087C545.4174884294057 860.9959801333041 390.0203515402725 781.2703996013615 274.8279048204172 627.8285297078529C159.63545810056178 474.38665981434417 -7.506255825901121 124.47500464446068 78.88551670554978 30.90916513606544C165.27728923700073 -62.6566743723298 574.3159662515264 25.270630174047938 689.5084129713817 178.71250006755668C804.7008596912372 332.1543699610654 718.2010334923076 673.8643011165136 631.8092609608567 767.4301406249087 "></path><path d="M660.5575503119389 200.8412470090433C764.2307523598088 338.93892991320115 686.3809087807722 646.4778679531045 608.6283135024664 730.6871235106601C530.8757182241604 814.8963790682158 391.0182950239406 743.1433565894677 287.34509297607076 605.0456736853098C183.67189092820092 466.94799078115193 33.2443483943843 152.02750112825674 110.99694367269012 67.81824557070104C188.74953895099594 -16.391009986854613 556.884348264069 62.743564104885365 660.5575503119389 200.8412470090433C764.2307523598088 338.93892991320115 686.3809087807722 646.4778679531045 608.6283135024664 730.6871235106601 "></path><path d="M631.606687652496 222.96999395052978C723.7606450283803 345.7234898653368 654.5607840692367 619.0914347896952 585.447366044076 693.9441063964114C516.3339480189152 768.7967780031277 392.0162385076087 705.0163135775737 299.86228113172433 582.2628176627667C207.70832375584007 459.5093217479597 73.99495261466973 179.57999761205286 143.10837063983047 104.72732600533669C212.2217886649912 29.874654398620578 539.4527302766116 100.21649803572274 631.606687652496 222.96999395052978C723.7606450283803 345.7234898653368 654.5607840692367 619.0914347896952 585.447366044076 693.9441063964114 "></path><path d="M602.6558555106312 245.09874089201628C683.29056821453 352.5080498174724 622.7406898752794 591.705001626286 562.2664491032638 657.2010892821628C501.79220833124805 722.6971769380394 393.0142125088548 666.8892705656797 312.379499804956 559.4799616402236C231.74478710105728 452.07065271476745 114.74558735253328 207.13249409584898 175.21982812454888 141.63640643997235C235.69406889656454 76.14031878409571 522.0211428067325 137.68943196656016 602.6558555106312 245.09874089201628C683.29056821453 352.5080498174724 622.7406898752794 591.705001626286 562.2664491032638 657.2010892821628 "></path><path d="M573.7049928511884 267.2274878335028C642.8204608831016 359.292609769608 590.920565163744 564.3185684628769 539.0855016448734 620.458072167914C487.2504381260028 676.5975758729512 394.01215599252293 628.7622275537858 324.8966879606097 536.6971056176806C255.78121992869643 444.6319836815753 155.4961915728187 234.68499057964516 207.33125509168923 178.545486874608C259.1663186105598 122.40598316957085 504.5895248192752 175.16236589739754 573.7049928511884 267.2274878335028C642.8204608831016 359.292609769608 590.920565163744 564.3185684628769 539.0855016448734 620.458072167914 "></path><path d="M544.7541759681128 289.35625003377834C602.3503993280405 366.0771849805327 559.1004862285756 536.9321505582568 515.9045999628502 583.7150703124544C472.7087136971247 630.497990066652 395.0101452525581 590.6351998006808 337.41392189263047 513.9142648539264C279.81769853270276 437.19332990717203 196.24684156947131 262.23750232223034 239.44272783519676 215.45458256803272C282.6386141009222 168.6716628138351 487.15795260818504 212.63531508702397 544.7541759681128 289.35625003377834C602.3503993280405 366.0771849805327 559.1004862285756 536.9321505582568 515.9045999628502 583.7150703124544 "></path><path d="M515.803328567459 311.4849969752649C561.880307255401 372.8617449326684 527.2803767758293 509.54571739484754 492.72366776324895 546.9720531982057C458.1669587506685 584.3983890015638 396.0081039950153 552.5081567887869 349.9311253070731 491.1314088313834C303.854146619131 429.7546608739799 236.9974610485458 289.78999880602646 271.5541700611262 252.36366300266837C306.11087907370654 214.9373271993103 469.72634987951676 250.1082490178614 515.803328567459 311.4849969752649C561.880307255401 372.8617449326684 527.2803767758293 509.54571739484754 492.72366776324895 546.9720531982057 "></path><path d="M486.8525269431723 333.6137439167514C521.4102609591289 379.646304884804 495.4603130994501 482.1592842314385 469.5427813400148 510.229036083957C443.6252495805795 538.2987879364756 397.0061085138396 514.3811137768929 362.448374497883 468.3485528088403C327.89064048192637 422.31599184078766 277.7481263039875 317.3424952898226 303.66565806342277 289.27274343730403C329.583189822858 261.2029915847854 452.2947929272157 287.58118294869877 486.8525269431723 333.6137439167514C521.4102609591289 379.646304884804 495.4603130994501 482.1592842314385 469.5427813400148 510.229036083957 "></path><path d="M457.9016642837295 355.7424908582379C480.9401536277005 386.4308648369397 463.64018838791463 454.77285106802924 446.3618338816245 473.4860189697083C429.08347937533426 492.1991868713874 398.00405199750764 476.2540707649989 374.96556265353655 445.56569678629717C351.92707330956546 414.8773228075954 318.4987305242729 344.8949917736187 335.77708503056306 326.1818238719396C353.05543953685327 307.4686559702606 434.8631749397584 325.05411687953614 457.9016642837295 355.7424908582379C480.9401536277005 386.4308648369397 463.64018838791463 454.77285106802924 446.3618338816245 473.4860189697083 "></path><path d="M428.95083214186474 377.87123779972444C440.47007681385026 393.2154247890753 431.8200941939573 427.3864179046201 423.1809169408122 436.7430018554596C414.54173968766713 446.09958580629916 399.0020259987538 438.1270277531049 387.4827813267683 422.78284076375405C375.96353665478273 407.4386537744032 359.24936526213645 372.4474882574148 367.88854251528153 363.0909043065753C376.5277197684266 353.73432035573575 417.4315874698792 362.52705081037357 428.95083214186474 377.87123779972444C440.47007681385026 393.2154247890753 431.8200941939573 427.3864179046201 423.1809169408122 436.7430018554596 "></path></g></svg>