<svg id="visual" viewBox="0 0 900 600" width="900" height="600" xmlns="http://www.w3.org/2000/svg" xmlns:xlink="http://www.w3.org/1999/xlink" version="1.1"><rect x="0" y="0" width="900" height="600" fill="#002233"></rect><path d="M0 379L21.5 399C43 419 86 459 128.8 482.5C171.7 506 214.3 513 257.2 513.2C300 513.3 343 506.7 385.8 482.5C428.7 458.3 471.3 416.7 514.2 407.2C557 397.7 600 420.3 642.8 427C685.7 433.7 728.3 424.3 771.2 436.3C814 448.3 857 481.7 878.5 498.3L900 515L900 601L878.5 601C857 601 814 601 771.2 601C728.3 601 685.7 601 642.8 601C600 601 557 601 514.2 601C471.3 601 428.7 601 385.8 601C343 601 300 601 257.2 601C214.3 601 171.7 601 128.8 601C86 601 43 601 21.5 601L0 601Z" fill="#0066FF" stroke-linecap="round" stroke-linejoin="miter"></path></svg>